<svg width="84" height="13" viewBox="0 0 84 13" fill="none" xmlns="http://www.w3.org/2000/svg">
<path d="M5.46299 1.25001C5.71515 0.473954 6.81306 0.473954 7.06522 1.25001L7.96616 4.02283C8.07893 4.36989 8.40235 4.60487 8.76727 4.60487H11.6828C12.4988 4.60487 12.8381 5.64905 12.1779 6.12868L9.8192 7.84238C9.52397 8.05687 9.40044 8.43708 9.5132 8.78414L10.4141 11.557C10.6663 12.333 9.77807 12.9784 9.11792 12.4987L6.75922 10.785C6.46399 10.5705 6.06422 10.5705 5.76899 10.785L3.41029 12.4987C2.75013 12.9784 1.8619 12.333 2.11406 11.557L3.015 8.78414C3.12777 8.43708 3.00423 8.05687 2.709 7.84238L0.350305 6.12868C-0.309849 5.64905 0.0294252 4.60487 0.845421 4.60487H3.76093C4.12586 4.60487 4.44928 4.36989 4.56205 4.02283L5.46299 1.25001Z" fill="#FFC107"/>
<path d="M23.1522 1.24997C23.4044 0.473908 24.5023 0.473909 24.7544 1.24997L25.6554 4.02278C25.7681 4.36985 26.0916 4.60483 26.4565 4.60483H29.372C30.188 4.60483 30.5273 5.64901 29.8671 6.12864L27.5084 7.84233C27.2132 8.05683 27.0896 8.43703 27.2024 8.7841L28.1034 11.5569C28.3555 12.333 27.4673 12.9783 26.8071 12.4987L24.4484 10.785C24.1532 10.5705 23.7534 10.5705 23.4582 10.785L21.0995 12.4987C20.4393 12.9783 19.5511 12.333 19.8033 11.5569L20.7042 8.7841C20.817 8.43703 20.6934 8.05683 20.3982 7.84233L18.0395 6.12863C17.3794 5.649 17.7186 4.60483 18.5346 4.60483H21.4501C21.8151 4.60483 22.1385 4.36985 22.2513 4.02278L23.1522 1.24997Z" fill="#FFC107"/>
<path d="M40.8409 1.24997C41.0931 0.473908 42.191 0.473909 42.4431 1.24997L43.3441 4.02278C43.4569 4.36985 43.7803 4.60483 44.1452 4.60483H47.0607C47.8767 4.60483 48.216 5.64901 47.5558 6.12864L45.1971 7.84233C44.9019 8.05683 44.7784 8.43703 44.8911 8.7841L45.7921 11.5569C46.0442 12.333 45.156 12.9783 44.4958 12.4987L42.1371 10.785C41.8419 10.5705 41.4421 10.5705 41.1469 10.785L38.7882 12.4987C38.1281 12.9783 37.2398 12.333 37.492 11.5569L38.3929 8.7841C38.5057 8.43703 38.3822 8.05683 38.0869 7.84233L35.7282 6.12863C35.0681 5.649 35.4074 4.60483 36.2234 4.60483H39.1389C39.5038 4.60483 39.8272 4.36985 39.94 4.02278L40.8409 1.24997Z" fill="#FFC107"/>
<path d="M59.0058 1.40447C59.1083 1.08907 59.5545 1.08907 59.6569 1.40448L60.5579 4.17729C60.7376 4.73037 61.253 5.10483 61.8345 5.10483H64.75C65.0817 5.10483 65.2196 5.5292 64.9513 5.72413L62.5926 7.43782C62.1221 7.77964 61.9252 8.38553 62.1049 8.93861L63.0059 11.7114C63.1084 12.0268 62.7474 12.2891 62.4791 12.0942L60.1204 10.3805C59.6499 10.0387 59.0128 10.0387 58.5424 10.3805L56.1837 12.0942C55.9154 12.2891 55.5544 12.0268 55.6568 11.7114L56.5578 8.93861C56.7375 8.38553 56.5406 7.77964 56.0702 7.43782L53.7115 5.72413C53.4432 5.5292 53.581 5.10483 53.9127 5.10483H56.8282C57.4097 5.10483 57.9251 4.73037 58.1048 4.17729L59.0058 1.40447Z" stroke="#FFC107"/>
<path d="M76.695 1.40447C76.7975 1.08907 77.2437 1.08907 77.3462 1.40448L78.2471 4.17729C78.4268 4.73037 78.9422 5.10483 79.5237 5.10483H82.4393C82.7709 5.10483 82.9088 5.5292 82.6405 5.72413L80.2818 7.43782C79.8113 7.77964 79.6144 8.38553 79.7941 8.93861L80.6951 11.7114C80.7976 12.0268 80.4366 12.2891 80.1683 12.0942L77.8096 10.3805C77.3391 10.0387 76.702 10.0387 76.2316 10.3805L73.8729 12.0942C73.6046 12.2891 73.2436 12.0268 73.3461 11.7114L74.247 8.93861C74.4267 8.38553 74.2298 7.77964 73.7594 7.43782L71.4007 5.72413C71.1324 5.5292 71.2703 5.10483 71.6019 5.10483H74.5174C75.0989 5.10483 75.6143 4.73037 75.794 4.17729L76.695 1.40447Z" stroke="#FFC107"/>
</svg>
