<svg width="84" height="13" viewBox="0 0 84 13" fill="none" xmlns="http://www.w3.org/2000/svg">
<path d="M5.46152 1.53676C5.71368 0.760697 6.8116 0.760698 7.06375 1.53676L7.96469 4.30957C8.07746 4.65664 8.40088 4.89162 8.76581 4.89162H11.6813C12.4973 4.89162 12.8366 5.93579 12.1764 6.41542L9.81774 8.12912C9.52251 8.34362 9.39897 8.72382 9.51174 9.07089L10.4127 11.8437C10.6648 12.6198 9.77661 13.2651 9.11645 12.7855L6.75775 11.0718C6.46252 10.8573 6.06275 10.8573 5.76752 11.0718L3.40882 12.7855C2.74867 13.2651 1.86044 12.6198 2.11259 11.8437L3.01354 9.07089C3.1263 8.72382 3.00277 8.34362 2.70754 8.12912L0.34884 6.41542C-0.311314 5.93579 0.0279604 4.89162 0.843956 4.89162H3.75947C4.12439 4.89162 4.44781 4.65664 4.56058 4.30957L5.46152 1.53676Z" fill="#FFC107"/>
<path d="M23.151 1.53682C23.4031 0.760758 24.501 0.760759 24.7532 1.53682L25.6541 4.30963C25.7669 4.6567 26.0903 4.89168 26.4553 4.89168H29.3708C30.1868 4.89168 30.526 5.93586 29.8659 6.41549L27.5072 8.12918C27.212 8.34368 27.0884 8.72388 27.2012 9.07095L28.1021 11.8438C28.3543 12.6198 27.4661 13.2652 26.8059 12.7855L24.4472 11.0718C24.152 10.8573 23.7522 10.8573 23.457 11.0718L21.0983 12.7855C20.4381 13.2652 19.5499 12.6198 19.802 11.8438L20.703 9.07095C20.8158 8.72388 20.6922 8.34368 20.397 8.12918L18.0383 6.41548C17.3781 5.93585 17.7174 4.89168 18.5334 4.89168H21.4489C21.8138 4.89168 22.1373 4.6567 22.25 4.30963L23.151 1.53682Z" fill="#FFC107"/>
<path d="M40.8403 1.53682C41.0925 0.760758 42.1904 0.760759 42.4425 1.53682L43.3435 4.30963C43.4562 4.6567 43.7797 4.89168 44.1446 4.89168H47.0601C47.8761 4.89168 48.2154 5.93586 47.5552 6.41549L45.1965 8.12918C44.9013 8.34368 44.7778 8.72388 44.8905 9.07095L45.7915 11.8438C46.0436 12.6198 45.1554 13.2652 44.4952 12.7855L42.1365 11.0718C41.8413 10.8573 41.4415 10.8573 41.1463 11.0718L38.7876 12.7855C38.1275 13.2652 37.2392 12.6198 37.4914 11.8438L38.3923 9.07095C38.5051 8.72388 38.3816 8.34368 38.0863 8.12918L35.7276 6.41548C35.0675 5.93585 35.4067 4.89168 36.2227 4.89168H39.1383C39.5032 4.89168 39.8266 4.6567 39.9394 4.30963L40.8403 1.53682Z" fill="#FFC107"/>
<path d="M58.5295 1.53682C58.7817 0.760758 59.8796 0.760759 60.1317 1.53682L61.0327 4.30963C61.1455 4.6567 61.4689 4.89168 61.8338 4.89168H64.7493C65.5653 4.89168 65.9046 5.93586 65.2444 6.41549L62.8857 8.12918C62.5905 8.34368 62.467 8.72388 62.5797 9.07095L63.4807 11.8438C63.7328 12.6198 62.8446 13.2652 62.1844 12.7855L59.8257 11.0718C59.5305 10.8573 59.1307 10.8573 58.8355 11.0718L56.4768 12.7855C55.8167 13.2652 54.9284 12.6198 55.1806 11.8438L56.0815 9.07095C56.1943 8.72388 56.0708 8.34368 55.7755 8.12918L53.4168 6.41548C52.7567 5.93585 53.096 4.89168 53.9119 4.89168H56.8275C57.1924 4.89168 57.5158 4.6567 57.6286 4.30963L58.5295 1.53682Z" fill="#FFC107"/>
<path d="M76.6939 1.69132C76.7964 1.37592 77.2426 1.37592 77.3451 1.69133L78.246 4.46414C78.4257 5.01722 78.9411 5.39168 79.5226 5.39168H82.4382C82.7698 5.39168 82.9077 5.81605 82.6394 6.01098L80.2807 7.72467C79.8102 8.06649 79.6133 8.67238 79.793 9.22546L80.694 11.9983C80.7965 12.3137 80.4355 12.576 80.1672 12.381L77.8085 10.6673C77.338 10.3255 76.7009 10.3255 76.2305 10.6673L73.8718 12.381C73.6035 12.5759 73.2425 12.3137 73.345 11.9983L74.2459 9.22546C74.4256 8.67238 74.2287 8.06649 73.7583 7.72467L71.3996 6.01098C71.1313 5.81605 71.2692 5.39168 71.6008 5.39168H74.5163C75.0978 5.39168 75.6132 5.01722 75.7929 4.46414L76.6939 1.69132Z" stroke="#FFC107"/>
</svg>
